<?xml version="1.0" standalone="no"?>
<!DOCTYPE svg PUBLIC "-//W3C//DTD SVG 20010904//EN"
 "http://www.w3.org/TR/2001/REC-SVG-20010904/DTD/svg10.dtd">
<svg version="1.0" xmlns="http://www.w3.org/2000/svg"
 width="2325.000000pt" height="2325.000000pt" viewBox="0 0 2325.000000 2325.000000"
 preserveAspectRatio="xMidYMid meet">

<g transform="translate(0.000000,2325.000000) scale(0.100000,-0.100000)"
fill="#000000" stroke="none">
<path d="M4250 23005 c-83 -19 -215 -82 -289 -139 -151 -116 -316 -346 -447
-620 -67 -143 -160 -417 -363 -1081 -412 -1345 -628 -2329 -682 -3110 -15
-219 -6 -675 17 -845 22 -167 22 -425 0 -550 -9 -52 -32 -149 -50 -215 -63
-226 -76 -314 -76 -535 0 -244 28 -426 115 -745 96 -351 250 -749 460 -1190
67 -141 121 -260 127 -281 2 -7 -35 -43 -81 -80 -117 -94 -200 -173 -264 -252
-56 -68 -130 -183 -122 -190 2 -2 48 13 102 33 202 77 254 95 250 88 -3 -5
-51 -75 -106 -157 -56 -82 -100 -150 -99 -151 2 -2 55 13 118 32 196 58 413
113 449 113 42 0 161 -21 161 -29 0 -3 -52 -37 -116 -76 -302 -182 -507 -379
-604 -580 -39 -79 -70 -184 -70 -237 l0 -26 58 27 c221 107 283 133 297 128
37 -15 26 -38 -60 -129 -239 -256 -363 -484 -403 -740 -5 -32 -6 -55 -2 -53 3
2 30 42 58 89 29 47 56 86 59 86 4 0 14 -7 24 -16 21 -19 21 -20 -76 -309 -41
-121 -81 -260 -90 -309 -15 -86 -21 -226 -10 -226 3 0 59 47 123 104 216 190
280 226 407 226 l62 0 -101 -152 c-325 -491 -462 -859 -483 -1297 l-6 -135 29
21 c16 12 74 57 129 101 55 44 101 79 102 78 4 -4 -107 -329 -210 -616 -151
-421 -212 -631 -257 -882 -24 -136 -39 -289 -28 -286 4 2 146 161 315 354 170
193 402 457 516 587 183 209 206 239 197 257 -6 11 -12 20 -15 20 -2 0 -122
-74 -267 -164 -145 -90 -265 -162 -266 -160 -7 5 81 170 132 249 75 115 160
216 274 328 l99 97 -41 -1 c-23 0 -74 -4 -113 -8 -40 -4 -73 -5 -73 -3 0 4
286 323 519 579 57 62 98 113 93 113 -6 0 -143 -33 -306 -74 -228 -57 -293
-70 -286 -57 16 30 144 153 215 206 38 29 142 94 230 145 182 105 255 150 255
156 0 3 -10 2 -22 -1 -27 -6 -462 -55 -489 -55 -17 0 -15 8 16 77 54 116 134
230 227 318 165 158 356 259 730 385 70 23 129 49 132 57 3 8 13 71 21 140 18
142 32 183 78 231 41 43 106 78 111 60 3 -7 23 -105 45 -218 55 -281 246 -947
363 -1270 92 -255 155 -372 276 -515 150 -178 390 -319 652 -384 108 -27 351
-65 595 -93 257 -30 860 -33 1019 -5 240 42 434 118 611 237 229 154 334 279
1623 1920 140 178 153 192 198 219 l36 21 -20 -32 c-94 -156 -160 -257 -303
-468 -217 -321 -360 -560 -326 -547 8 3 57 31 108 63 395 244 732 628 805 914
25 100 16 224 -25 320 l-32 75 30 25 c96 81 237 139 356 147 149 10 269 -35
388 -147 l70 -66 -26 -39 c-59 -91 -59 -185 -1 -343 107 -290 284 -535 513
-708 81 -61 223 -139 241 -132 4 2 -71 144 -167 316 -96 173 -173 315 -171
317 2 2 25 -14 51 -37 51 -43 66 -61 298 -358 617 -788 934 -1183 1025 -1274
202 -203 447 -339 729 -407 329 -78 1064 -62 1662 36 391 64 601 162 809 377
127 131 200 243 298 457 134 292 202 520 340 1129 24 106 45 194 47 197 7 7
699 -184 849 -234 162 -55 353 -134 448 -187 85 -48 187 -132 315 -261 104
-105 109 -113 147 -208 22 -54 39 -100 37 -102 -2 -1 -124 17 -273 41 -148 24
-270 42 -272 41 -4 -4 70 -45 248 -140 171 -91 286 -166 378 -245 67 -58 158
-158 150 -165 -2 -2 -134 34 -293 80 -159 47 -293 84 -297 83 -4 -2 32 -43 80
-93 48 -49 155 -162 237 -250 82 -88 183 -195 225 -238 88 -92 97 -105 76
-112 -9 -3 -23 -7 -31 -10 -8 -2 -49 0 -92 5 -43 4 -79 7 -81 5 -2 -1 45 -49
104 -106 128 -125 239 -255 311 -365 52 -80 118 -214 106 -214 -10 0 -87 46
-218 130 -66 42 -154 95 -195 118 -78 43 -206 95 -221 90 -5 -2 43 -66 107
-143 242 -295 365 -513 418 -744 l15 -63 -27 23 c-15 13 -32 28 -37 34 -135
136 -376 304 -509 355 l-28 10 32 -57 c271 -479 395 -750 480 -1046 22 -76 40
-141 40 -143 0 -13 -29 4 -126 76 -117 87 -188 117 -247 105 -61 -13 -61 -11
14 -170 195 -413 270 -594 327 -785 40 -132 71 -282 79 -380 6 -88 17 -93
-112 60 -115 137 -251 270 -339 332 -68 48 -215 128 -235 128 -6 0 30 -62 78
-137 281 -439 405 -727 446 -1042 8 -63 13 -116 11 -119 -3 -2 -42 31 -88 74
-328 311 -482 432 -653 513 -85 41 -205 85 -211 78 -3 -2 40 -69 95 -148 281
-406 419 -693 481 -997 24 -120 38 -306 21 -282 -6 8 -67 110 -137 225 -175
293 -248 388 -511 664 -113 119 -119 123 -150 117 l-32 -7 40 -87 c224 -487
311 -901 268 -1290 -38 -356 -186 -709 -426 -1019 -64 -83 -75 -93 -70 -66 6
30 15 161 21 293 4 94 -13 357 -29 453 -33 194 -88 369 -172 552 -46 98 -142
270 -148 263 -1 -2 8 -113 20 -248 68 -723 70 -853 19 -1160 -57 -343 -219
-776 -361 -965 -101 -135 -98 -135 -98 13 0 106 -3 127 -15 130 -10 2 -48 -45
-109 -135 -201 -300 -241 -356 -241 -343 0 7 9 83 20 169 58 453 37 787 -64
996 -61 126 -62 126 -69 -23 -23 -437 -139 -830 -334 -1127 -87 -132 -279
-356 -260 -303 14 39 67 270 83 358 22 130 23 367 0 485 -17 89 -85 309 -93
302 -2 -3 -15 -76 -28 -163 -52 -342 -108 -610 -161 -776 -40 -124 -112 -273
-147 -306 l-24 -23 -18 43 c-9 24 -21 54 -26 67 -9 22 -15 13 -63 -92 -173
-375 -386 -671 -641 -887 -47 -40 -87 -71 -89 -69 -2 2 22 150 52 328 46 269
53 325 41 332 -27 17 -35 8 -58 -63 -27 -85 -97 -228 -149 -308 -63 -94 -187
-244 -293 -355 -56 -58 -100 -107 -98 -109 7 -6 628 70 1019 125 2515 351
4814 1017 6880 1993 123 58 228 110 232 114 4 4 -30 54 -76 112 -109 138 -366
469 -436 560 -30 40 -205 264 -388 499 -424 542 -410 516 -478 921 -109 645
-258 1339 -426 1975 -115 440 -294 1037 -428 1430 -155 452 -251 711 -432
1165 -50 124 -108 277 -130 340 -37 107 -38 115 -22 127 10 7 23 13 30 13 6 0
65 -56 130 -125 65 -69 122 -125 125 -125 4 0 12 14 19 30 10 25 10 55 1 148
-35 353 -155 689 -351 986 -36 55 -79 124 -95 151 -15 28 -35 61 -44 74 l-15
24 59 -6 c147 -16 209 -51 381 -219 66 -65 124 -118 127 -118 10 0 8 78 -4
167 -13 100 -47 234 -113 453 -30 96 -57 191 -61 210 -9 40 -16 44 94 -53 35
-31 66 -56 67 -54 6 6 -45 181 -72 247 -74 183 -144 287 -363 544 -63 74 -71
88 -60 102 17 21 25 18 229 -69 96 -41 177 -73 179 -71 7 6 -42 128 -91 227
-118 239 -213 334 -615 611 -103 71 -143 104 -143 118 0 16 5 19 23 15 20 -5
161 -32 547 -106 85 -16 156 -28 158 -26 2 2 -40 63 -92 136 -53 73 -94 134
-92 136 2 2 77 -23 167 -56 90 -33 164 -59 166 -57 1 1 -20 39 -47 83 -62 101
-169 215 -316 339 -62 52 -116 99 -120 105 -3 6 15 41 40 77 26 37 79 112 117
167 39 55 101 163 139 240 105 215 152 357 226 685 44 197 82 334 159 579 68
220 79 291 80 531 0 237 -7 287 -71 495 -71 232 -80 439 -29 680 40 189 55
348 55 585 0 740 -149 1633 -440 2645 -476 1657 -547 1864 -719 2119 -89 133
-212 278 -288 341 -276 229 -614 215 -999 -40 -86 -58 -348 -273 -504 -414
-161 -147 -172 -158 -885 -891 -88 -91 -234 -242 -325 -335 -269 -277 -461
-476 -700 -725 -124 -129 -277 -289 -341 -355 -64 -66 -129 -134 -145 -151
-16 -17 -108 -113 -204 -215 -384 -402 -388 -407 -690 -807 -101 -134 -209
-266 -239 -293 -53 -47 -56 -48 -72 -32 -17 17 -16 26 22 166 22 82 38 151 36
153 -3 3 -96 -28 -208 -69 -255 -93 -404 -142 -494 -163 -64 -15 -196 -15
-1455 -9 -1489 7 -1492 7 -1675 60 -49 14 -148 53 -219 86 -153 71 -221 94
-298 104 -70 8 -71 5 -31 -111 14 -44 26 -97 27 -119 1 -39 -20 -105 -33 -105
-12 0 -113 142 -316 440 -106 157 -250 352 -324 440 -68 81 -575 627 -1020
1100 -91 96 -195 206 -231 245 -36 38 -119 126 -185 195 -67 69 -170 177 -230
240 -60 63 -157 165 -215 225 -59 61 -221 229 -360 375 -475 494 -637 647
-909 854 -226 172 -355 247 -493 286 -96 28 -260 35 -348 15z m180 -396 c116
-27 246 -108 445 -280 762 -656 1383 -1361 1855 -2109 40 -63 131 -216 201
-340 70 -124 146 -256 168 -295 61 -107 161 -224 268 -317 168 -145 258 -279
290 -436 19 -90 9 -172 -28 -247 -46 -92 -170 -179 -300 -209 -34 -8 -63 -17
-66 -20 -3 -3 -17 -100 -31 -216 -20 -163 -29 -210 -40 -210 -12 0 -139 32
-224 56 -17 5 -18 -6 -18 -125 0 -72 -3 -131 -7 -130 -8 1 -27 12 -195 119
-56 36 -108 69 -115 73 -11 7 -10 -1 2 -30 45 -104 58 -145 86 -271 20 -85 33
-177 36 -242 12 -239 -36 -301 -272 -359 -125 -31 -256 -85 -271 -112 -25 -46
-33 -40 179 -153 94 -51 93 -49 48 -106 l-19 -24 -219 74 c-120 41 -238 81
-263 90 -42 15 -48 21 -90 106 -25 49 -65 118 -89 154 -57 84 -188 212 -278
273 -131 87 -349 185 -530 238 -24 7 -43 15 -43 18 0 3 50 39 111 79 63 42
107 77 103 83 -3 6 -87 115 -186 242 -207 267 -206 254 -24 218 216 -43 403
-121 559 -232 107 -76 260 -234 319 -329 24 -38 46 -69 49 -70 9 0 -10 119
-32 200 -59 219 -201 459 -417 705 -39 44 -66 81 -61 83 17 7 171 -38 234 -68
101 -48 210 -136 341 -274 l122 -128 -14 88 c-47 292 -166 562 -334 756 -180
208 -426 378 -753 519 -78 33 -79 33 -57 51 37 30 98 41 195 34 50 -3 133 -9
186 -12 56 -4 99 -3 102 3 10 15 -158 207 -237 271 -40 32 -109 81 -152 107
-159 97 -331 213 -405 273 -154 124 -312 316 -378 460 -14 28 -28 52 -31 52
-12 0 -30 -143 -37 -280 -20 -416 107 -840 400 -1340 61 -103 83 -148 75 -157
-17 -21 -92 -53 -150 -63 -70 -13 -138 -3 -308 45 -158 45 -246 53 -323 31
l-57 -16 25 -67 c104 -276 239 -497 585 -958 111 -148 209 -279 217 -292 15
-23 15 -23 -18 -17 -19 4 -106 24 -194 46 -172 42 -298 51 -381 29 -64 -17
-64 -42 -2 -110 164 -178 255 -344 378 -681 94 -261 182 -404 343 -558 98 -93
215 -173 356 -243 l96 -47 21 60 c29 78 68 126 132 161 44 24 70 30 170 37
139 11 226 0 293 -37 60 -32 108 -81 92 -91 -7 -4 -118 -21 -248 -37 l-235
-29 21 -22 c11 -12 79 -73 149 -136 l129 -113 -65 -33 c-111 -56 -166 -65
-359 -59 -93 3 -230 13 -304 22 -73 9 -136 13 -140 10 -3 -4 6 -28 20 -53 30
-54 119 -123 296 -229 l113 -67 -113 -58 c-61 -32 -158 -82 -214 -111 -57 -28
-103 -54 -103 -57 0 -3 53 -35 117 -70 l118 -65 -65 -8 c-92 -11 -231 -60
-325 -114 -44 -26 -154 -99 -245 -163 -91 -64 -217 -152 -280 -195 -63 -43
-142 -97 -175 -120 -506 -353 -654 -455 -659 -455 -8 0 -205 403 -281 575 -92
209 -234 618 -265 762 -17 77 0 126 63 188 40 39 52 58 57 90 9 67 -7 182 -49
345 -22 85 -38 156 -37 158 2 1 88 -42 192 -97 104 -55 190 -97 192 -92 2 5
-9 55 -23 111 -14 56 -25 106 -23 110 2 4 63 -10 137 -32 73 -22 135 -37 138
-34 3 3 -4 44 -16 92 -12 48 -21 88 -19 89 2 2 83 -15 181 -38 137 -32 180
-38 189 -29 16 16 -35 69 -171 175 -330 259 -408 334 -511 489 -141 215 -192
439 -171 749 13 181 12 721 -2 1139 -17 505 11 693 159 1057 108 264 174 476
258 823 59 248 69 289 155 691 90 416 123 523 223 724 132 265 314 490 450
554 99 47 193 56 308 30z m13665 -24 c88 -31 188 -99 259 -176 129 -139 262
-382 341 -623 45 -137 49 -155 275 -1131 147 -633 162 -690 210 -785 39 -78
97 -245 125 -366 58 -244 75 -541 55 -984 -6 -151 -13 -502 -15 -780 -3 -293
-8 -528 -15 -559 -27 -143 -80 -253 -174 -363 -92 -108 -453 -440 -602 -556
-64 -49 -81 -67 -77 -82 3 -11 10 -20 16 -20 6 0 89 18 184 41 96 22 177 38
180 35 4 -3 1 -41 -5 -83 -6 -43 -8 -80 -6 -83 3 -2 68 11 145 31 81 20 139
30 139 24 0 -5 -10 -58 -21 -118 -12 -59 -19 -110 -16 -113 3 -4 61 12 128 35
68 22 125 39 127 36 2 -2 4 -84 4 -182 -1 -213 7 -257 56 -314 34 -39 37 -49
40 -113 8 -165 -154 -602 -326 -880 -100 -161 -234 -337 -329 -429 l-39 -37
-235 168 c-129 92 -310 222 -404 287 -93 65 -237 169 -320 230 -184 138 -257
185 -360 235 -76 37 -215 81 -298 95 -37 6 -37 6 95 72 l133 65 -232 117
c-128 63 -233 118 -233 121 0 3 51 39 112 80 61 41 158 108 217 148 l106 73
-305 -7 c-213 -5 -337 -3 -410 5 -112 13 -317 57 -325 71 -5 8 102 75 245 153
163 90 448 198 595 227 33 6 69 14 79 17 17 5 18 1 12 -48 -12 -95 -56 -171
-153 -266 l-88 -85 55 7 c79 11 150 40 199 81 23 20 85 90 136 154 283 355
380 527 507 900 114 335 197 502 325 655 36 42 63 79 60 81 -2 2 -71 4 -153 5
-134 0 -160 -3 -264 -30 -63 -16 -135 -37 -159 -45 -24 -9 -50 -16 -57 -16 -8
0 80 125 195 278 290 386 406 562 521 791 49 98 120 265 120 281 0 16 -103 33
-164 27 -33 -4 -126 -24 -204 -46 -79 -22 -170 -43 -202 -47 -82 -9 -176 15
-249 65 -15 10 1 42 125 253 200 340 317 664 359 998 25 192 11 394 -35 515
-11 29 -12 28 -76 -89 -88 -160 -134 -226 -225 -321 -90 -93 -188 -166 -344
-256 -124 -71 -179 -108 -280 -190 -104 -84 -285 -275 -285 -300 0 -5 103 -9
238 -9 l237 -1 -120 -62 c-616 -322 -921 -712 -1000 -1282 l-7 -49 126 121
c139 135 222 198 317 243 64 29 182 64 199 58 5 -2 -27 -50 -70 -107 -240
-314 -346 -524 -384 -761 -9 -51 -14 -95 -13 -97 2 -1 26 30 53 70 67 100 252
283 349 346 160 104 344 178 564 225 68 15 125 25 128 23 2 -2 -50 -71 -115
-153 -65 -82 -155 -196 -200 -254 l-82 -104 64 -41 c36 -22 88 -54 116 -71
l52 -31 -108 -38 c-483 -171 -729 -375 -856 -708 -46 -121 -77 -163 -149 -199
-50 -25 -198 -63 -208 -53 -4 4 143 172 164 187 7 5 7 8 0 8 -257 0 -478 10
-525 23 -151 45 -258 128 -313 245 -30 63 -32 73 -32 182 0 141 17 197 117
388 38 74 68 136 65 138 -2 2 -36 -2 -75 -9 -51 -10 -72 -11 -72 -3 0 6 11 53
24 104 13 50 20 92 14 92 -5 0 -80 -29 -167 -65 -86 -36 -163 -65 -170 -65 -9
0 -11 8 -8 23 3 12 9 74 12 137 l7 115 -63 24 c-278 104 -409 222 -481 431
-33 97 -31 257 5 358 51 145 142 264 262 342 137 90 251 222 380 440 204 345
269 451 378 615 481 722 1058 1365 1777 1985 322 276 418 329 610 329 76 1
109 -4 165 -24z m-6845 -4580 c0 -2 -22 -107 -50 -233 -43 -200 -64 -313 -135
-746 -8 -50 -13 -92 -10 -94 2 -2 50 30 107 71 57 41 105 74 106 72 2 -2 -20
-61 -48 -132 -151 -369 -223 -645 -237 -893 l-5 -105 88 -36 89 -35 2 -395 c3
-432 16 -585 68 -764 31 -105 84 -245 93 -245 4 0 22 60 41 133 121 470 182
659 282 864 175 358 432 633 741 789 81 41 221 104 225 100 1 -1 -26 -93 -61
-204 -35 -111 -62 -202 -61 -202 1 0 99 55 217 123 221 126 327 175 453 207
83 21 235 37 234 24 0 -5 -35 -58 -79 -119 -43 -60 -77 -111 -75 -113 2 -2
460 93 498 104 13 4 17 0 17 -18 -1 -49 -37 -105 -97 -149 -63 -46 -86 -71
-75 -80 4 -3 122 -55 262 -114 140 -60 256 -109 258 -111 2 -1 0 -13 -3 -27
-6 -23 -14 -26 -118 -42 -62 -9 -134 -21 -160 -26 -26 -5 -61 -9 -77 -9 -17 0
-30 -4 -30 -8 0 -4 81 -34 181 -66 202 -65 320 -121 509 -242 104 -67 125 -85
125 -105 l0 -24 -322 -3 -321 -2 -7 -31 c-4 -17 -5 -32 -3 -34 2 -3 87 -23
189 -46 213 -47 389 -103 505 -159 87 -42 284 -168 284 -182 0 -4 -128 -8
-284 -8 -237 0 -285 -2 -289 -14 -5 -14 95 -70 691 -388 50 -27 92 -51 92 -53
0 -2 -4 -14 -9 -28 -12 -31 -31 -34 -586 -97 -932 -106 -1326 -139 -1730 -147
-219 -4 -317 -2 -450 11 -722 71 -921 81 -1610 81 -687 0 -979 -16 -1580 -86
-93 -10 -258 -22 -365 -25 -294 -10 -479 5 -1100 90 -153 21 -1283 156 -1304
156 -12 0 16 43 58 88 22 24 66 62 98 83 74 50 331 177 536 264 142 61 159 71
140 80 -23 10 -458 12 -530 3 -21 -3 -38 -2 -38 2 0 11 146 121 215 162 158
94 454 190 688 223 26 4 49 11 52 15 3 5 -23 22 -57 39 -56 28 -70 31 -157 31
-53 0 -168 -7 -256 -15 -230 -21 -218 -23 -170 23 157 149 360 274 663 407 34
15 62 31 62 35 0 10 -105 20 -206 20 -46 0 -84 4 -84 9 0 14 109 97 170 130
30 16 122 52 203 80 81 28 154 54 163 59 11 6 -11 29 -100 103 -63 52 -115 97
-115 100 -1 11 58 19 134 19 49 0 116 -11 211 -35 76 -19 154 -35 172 -35 l33
0 -76 109 c-41 60 -75 112 -75 115 0 11 74 7 162 -9 165 -29 338 -104 573
-250 55 -34 105 -65 112 -68 6 -4 -9 55 -33 131 -54 167 -66 213 -62 218 3 2
38 -7 79 -19 183 -57 472 -301 624 -527 168 -252 251 -502 315 -955 6 -44 14
-89 17 -99 5 -20 6 -20 20 0 26 35 120 227 147 302 60 167 108 425 122 657 l6
110 58 90 c89 140 95 162 95 350 0 180 -8 219 -80 415 -39 104 -62 211 -46
209 3 0 60 -66 126 -146 l120 -145 13 43 c22 72 26 314 8 493 -8 88 -14 162
-12 163 2 2 30 -37 62 -88 l58 -92 16 49 c9 27 61 199 116 381 54 183 102 333
105 333 3 0 30 -61 59 -135 30 -74 57 -131 61 -127 7 7 166 234 257 365 47 68
56 76 73 67 10 -6 19 -12 19 -15z m-5635 -1217 c110 -27 257 -131 342 -243 72
-94 151 -249 129 -253 -25 -5 -123 26 -195 63 -106 53 -168 104 -405 332 -113
110 -112 104 -36 116 32 5 114 -2 165 -15z m11226 -150 c-63 -161 -146 -277
-263 -368 -42 -32 -127 -67 -195 -80 -64 -13 -193 -6 -193 10 0 17 91 128 157
191 69 67 182 148 263 189 63 32 191 79 217 80 19 0 21 -3 14 -22z m-10611
-2568 c161 -15 1009 -114 1280 -150 250 -34 532 -79 717 -116 430 -85 727 -91
1378 -29 480 46 566 50 1070 50 506 0 600 -5 1060 -50 465 -46 790 -43 1154
11 495 74 660 96 1081 149 125 16 633 73 935 106 248 26 658 36 876 20 359
-27 648 -83 947 -183 l212 -72 0 -41 c0 -62 -39 -607 -50 -708 -13 -111 -30
-150 -112 -253 -69 -87 -93 -135 -109 -217 -9 -49 -3 -147 10 -147 3 0 37 61
74 135 38 75 72 133 77 130 16 -10 33 -143 28 -226 -6 -101 -25 -157 -89 -269
-61 -106 -71 -136 -114 -340 -39 -188 -229 -984 -300 -1255 -84 -324 -151
-491 -273 -675 -69 -105 -223 -260 -322 -325 -160 -104 -333 -169 -544 -202
-95 -16 -175 -18 -566 -16 -250 0 -511 5 -580 11 l-125 9 97 2 c205 3 1146 92
1278 121 396 86 673 352 813 780 19 58 38 119 41 135 l7 30 -20 -25 c-11 -14
-48 -77 -82 -140 -33 -63 -82 -144 -107 -180 -103 -147 -268 -287 -412 -353
-205 -92 -695 -183 -1180 -217 -234 -17 -618 -14 -735 5 -317 51 -589 187
-823 410 -86 81 -249 272 -357 416 -11 15 -88 116 -171 225 -83 110 -226 303
-319 429 -93 127 -213 291 -269 365 -55 74 -149 207 -209 295 -247 360 -388
506 -595 612 -37 19 -56 32 -42 29 266 -53 297 -44 158 48 -100 65 -136 81
-233 101 -183 38 -416 1 -570 -90 -65 -38 -81 -60 -105 -137 -40 -132 -84
-199 -254 -393 -53 -60 -161 -198 -238 -305 -331 -456 -902 -1206 -1038 -1365
-208 -240 -421 -415 -623 -510 -224 -106 -379 -135 -705 -135 -391 0 -804 47
-1162 131 -166 39 -238 63 -340 115 -110 55 -168 97 -258 186 -99 99 -153 180
-260 393 -50 99 -91 173 -92 164 0 -8 13 -63 30 -121 92 -328 242 -568 448
-715 90 -64 231 -128 347 -157 167 -42 656 -105 1065 -136 80 -6 170 -14 200
-17 l55 -6 -60 -10 c-33 -6 -224 -11 -425 -11 -346 0 -375 1 -565 27 -226 32
-317 52 -431 96 -278 108 -489 312 -644 621 -91 182 -201 504 -286 839 -49
194 -80 334 -189 860 -54 259 -103 400 -183 525 -17 27 -36 72 -42 100 -13 61
-38 326 -30 326 13 0 104 -87 125 -119 12 -20 40 -91 60 -156 35 -112 39 -118
48 -90 5 17 10 77 11 135 1 125 -11 157 -101 264 -148 174 -146 167 -129 571
13 313 13 321 40 377 45 96 124 148 282 187 86 22 375 72 519 91 281 37 714
50 945 30z"/>
<path d="M5960 19990 c0 -5 5 -10 10 -10 6 0 10 5 10 10 0 6 -4 10 -10 10 -5
0 -10 -4 -10 -10z"/>
<path d="M4715 15983 c109 -107 171 -138 281 -138 73 0 87 3 159 39 66 33 76
41 60 47 -11 5 -139 34 -283 64 -145 31 -271 59 -280 62 -10 3 19 -31 63 -74z"/>
<path d="M6310 13855 c-338 -28 -685 -83 -1225 -191 -191 -39 -340 -74 -370
-88 -142 -65 -208 -203 -175 -368 23 -117 75 -189 166 -229 54 -25 173 -49
236 -49 l50 0 -58 46 c-33 25 -80 56 -105 69 -108 56 -152 123 -152 234 1 120
54 184 178 216 60 15 275 45 326 45 l27 0 -40 -122 c-147 -459 -186 -671 -195
-1069 -8 -337 14 -594 82 -955 56 -293 178 -713 258 -888 80 -171 214 -343
353 -452 199 -155 377 -225 694 -273 321 -48 661 -79 956 -88 187 -5 236 -3
320 12 281 50 498 176 725 420 762 820 1171 1562 1323 2395 58 317 53 487 -16
625 -121 239 -363 371 -881 480 -549 115 -1005 186 -1457 226 -201 17 -828 20
-1020 4z m-340 -329 c0 -8 -36 -149 -80 -313 -153 -576 -183 -735 -250 -1338
-16 -148 -32 -286 -36 -305 l-6 -35 -20 25 c-65 80 -101 176 -152 402 -62 272
-77 385 -83 610 -14 519 83 791 322 905 110 52 305 83 305 49z m170 -3537
c501 -106 719 -138 995 -146 234 -7 377 4 558 42 62 13 121 27 132 31 14 5 17
4 10 -3 -14 -15 -112 -50 -187 -67 -142 -33 -288 -46 -511 -46 -308 0 -538 28
-805 96 -117 30 -342 108 -342 120 0 6 -12 8 150 -27z"/>
<path d="M14229 13860 c-345 -16 -686 -49 -1079 -106 -568 -81 -780 -127
-1093 -233 -279 -95 -438 -230 -506 -429 -79 -233 -26 -674 141 -1167 214
-631 629 -1272 1191 -1838 340 -342 611 -432 1257 -414 424 12 907 89 1177
188 229 83 444 253 582 459 74 110 186 331 242 474 90 230 183 622 230 969 29
216 37 618 15 822 -31 287 -101 570 -206 824 -28 68 -49 126 -46 128 6 6 352
-51 407 -67 56 -16 102 -51 129 -100 20 -37 24 -59 24 -120 0 -127 -32 -169
-194 -251 l-85 -44 100 -3 c165 -5 240 30 291 135 26 53 29 68 29 163 0 95 -3
111 -28 162 -33 68 -80 111 -163 150 -112 52 -988 222 -1354 262 -331 37 -744
51 -1061 36z m1041 -284 c161 -21 306 -51 375 -77 128 -48 240 -155 283 -272
68 -182 103 -703 67 -1012 -47 -402 -192 -826 -344 -1003 -34 -39 -66 -72 -71
-72 -5 0 -98 51 -207 113 -109 63 -430 246 -713 407 -283 161 -814 464 -1180
673 -366 209 -750 429 -855 489 -250 142 -308 201 -291 292 14 72 134 173 299
251 160 76 319 117 622 159 463 64 664 75 1335 71 443 -2 580 -6 680 -19z m40
-3580 c0 -6 -140 -48 -285 -86 -149 -38 -337 -73 -520 -96 -192 -24 -565 -25
-765 0 -143 17 -215 35 -90 22 414 -42 968 5 1502 129 167 38 158 36 158 31z"/>
<path d="M10085 9030 c-251 -17 -518 -64 -690 -121 -197 -65 -471 -225 -618
-360 -110 -100 -187 -233 -221 -380 -47 -204 -81 -561 -70 -739 21 -351 102
-619 275 -906 111 -185 151 -302 152 -447 0 -114 10 -123 73 -71 75 64 84 69
84 51 0 -8 -11 -97 -25 -197 -14 -100 -25 -189 -25 -197 0 -9 13 1 29 23 17
21 53 68 81 104 28 36 68 87 88 115 46 62 51 46 21 -67 -29 -106 -130 -306
-241 -475 -117 -178 -115 -174 -80 -164 58 17 110 44 202 105 229 151 228 151
124 -36 -157 -278 -142 -245 -120 -261 18 -13 24 -11 65 20 179 133 213 155
223 145 7 -7 -15 -58 -71 -163 -44 -84 -80 -153 -78 -155 1 -1 99 27 217 63
118 35 282 84 364 108 l148 44 -6 -32 c-4 -17 -12 -37 -19 -44 -26 -26 -421
-215 -577 -276 -434 -171 -828 -254 -1082 -227 -388 41 -673 246 -857 618 -62
124 -93 209 -241 648 -66 197 -140 400 -165 451 -83 171 -208 272 -380 308
-75 16 -165 20 -165 8 1 -17 102 -197 185 -328 206 -327 267 -443 309 -588 28
-99 38 -160 26 -152 -34 21 -572 625 -648 727 -95 128 -142 254 -149 404 -9
160 13 255 112 498 31 76 54 140 52 142 -6 6 -99 -103 -150 -176 -168 -242
-192 -486 -73 -734 72 -148 233 -355 507 -646 315 -336 536 -646 745 -1045
194 -371 287 -619 584 -1555 184 -581 231 -718 294 -860 147 -328 322 -579
590 -845 264 -263 449 -396 749 -540 217 -104 436 -168 671 -196 129 -15 480
-6 605 16 473 82 893 295 1240 630 146 141 271 301 388 499 48 81 101 211 91
222 -3 2 -74 -48 -159 -112 -360 -272 -601 -406 -925 -517 -329 -113 -698
-162 -1035 -138 -599 43 -1066 206 -1439 502 -340 270 -615 693 -783 1204 -43
131 -43 130 -33 222 l8 72 69 -46 c82 -55 113 -100 198 -292 122 -274 226
-427 411 -604 285 -274 700 -459 1192 -533 143 -21 515 -30 675 -15 550 51
1007 239 1309 538 203 202 300 406 334 700 6 59 19 106 40 152 34 72 22 60
766 791 546 538 702 704 910 965 283 356 571 829 664 1090 109 310 89 489 -66
598 l-41 29 -44 -22 c-64 -33 -194 -125 -271 -192 -188 -166 -364 -437 -493
-763 -135 -342 -357 -729 -514 -896 -216 -232 -517 -334 -881 -300 -392 38
-806 159 -1302 381 -106 48 -488 247 -488 255 0 2 5 15 11 28 l11 24 126 -38
c70 -21 273 -83 452 -138 179 -55 326 -98 328 -97 1 2 -45 74 -103 162 -58 87
-105 162 -105 166 0 26 39 8 178 -80 195 -123 187 -119 177 -101 -30 50 -105
155 -211 294 -67 88 -143 193 -169 233 -52 82 -138 257 -133 272 3 9 64 -35
188 -137 47 -39 145 -80 169 -71 5 2 -56 81 -135 177 -124 149 -143 176 -131
188 12 12 25 9 86 -21 116 -56 111 -57 85 21 -59 173 -17 299 165 498 242 264
392 601 440 993 18 142 24 419 12 542 -36 376 -172 551 -611 788 -350 188
-959 296 -1475 262z m558 -665 c241 -28 540 -108 764 -204 95 -40 135 -65 268
-165 44 -32 81 -60 83 -62 2 -1 -1 -12 -8 -23 -11 -21 -11 -21 -78 13 -85 42
-207 81 -325 103 -81 15 -215 18 -1122 22 l-1029 6 70 52 c145 107 501 219
824 258 146 18 401 18 553 0z m395 -996 c-30 -133 -30 -292 1 -372 37 -95 88
-150 183 -196 77 -38 202 -71 264 -71 l27 0 -24 -26 c-44 -48 -116 -77 -189
-76 -155 1 -343 126 -414 275 -56 119 -72 266 -39 367 21 66 87 140 155 174
28 14 53 24 55 23 1 -2 -7 -46 -19 -98z m-1362 -51 c26 -29 59 -78 73 -108 71
-149 -8 -393 -164 -512 -88 -68 -229 -95 -340 -67 -56 14 -113 63 -148 126
l-26 50 132 23 c146 25 279 60 335 89 108 56 135 160 94 364 -10 48 -15 87
-11 87 4 0 29 -24 55 -52z m714 -1761 c10 -23 28 -83 39 -132 36 -163 77 -242
146 -285 20 -12 35 -24 33 -25 -4 -4 -259 43 -264 48 -5 5 18 437 23 437 2 0
13 -19 23 -43z m1677 -1486 c-18 -396 -113 -643 -326 -843 -105 -99 -162 -128
-255 -128 -86 -1 -149 -22 -235 -78 -69 -46 -106 -52 -147 -26 -47 32 -146 30
-281 -5 -173 -44 -245 -40 -320 19 -35 28 -52 26 -128 -16 -113 -62 -195 -58
-312 17 l-32 20 -75 -37 c-70 -34 -80 -36 -143 -32 -74 5 -142 34 -225 95 -46
33 -47 34 -125 27 -102 -8 -149 5 -211 61 -101 91 -209 355 -322 788 -40 153
-41 161 -30 230 6 39 13 73 15 75 2 2 36 -13 76 -34 86 -45 181 -136 284 -270
39 -50 104 -134 145 -185 42 -52 100 -128 129 -169 116 -161 154 -210 165
-210 6 0 60 25 119 55 166 84 203 78 341 -52 l77 -73 119 105 c65 58 123 105
130 105 9 0 99 -65 226 -162 7 -5 40 12 87 47 150 110 195 116 352 53 l104
-41 20 24 c11 13 89 118 173 234 239 328 327 433 473 563 l70 63 34 -37 34
-37 -6 -146z m294 -117 c23 -65 23 -132 -1 -321 -54 -418 -96 -560 -212 -718
-177 -240 -452 -378 -893 -449 -244 -39 -559 -46 -936 -21 -342 23 -432 39
-563 99 -31 14 -61 26 -66 26 -32 0 25 72 78 99 17 9 196 12 680 12 770 -1
945 6 1084 42 347 91 530 250 622 545 26 83 41 185 75 495 l18 168 39 40 c21
21 43 38 48 36 5 -2 18 -25 27 -53z"/>
<path d="M3305 8570 c-139 -36 -232 -84 -343 -174 -210 -169 -396 -540 -467
-931 -19 -106 -30 -390 -18 -490 l8 -70 59 85 c91 130 125 169 173 197 24 14
46 24 48 22 2 -2 -8 -83 -21 -179 -35 -244 -42 -494 -19 -631 21 -130 69 -265
130 -369 26 -44 48 -80 49 -80 2 0 40 61 86 135 45 75 85 134 87 132 4 -5 30
-96 83 -302 22 -88 44 -169 47 -180 12 -35 21 55 32 320 15 338 28 406 155
822 29 97 32 114 19 124 -17 15 -5 26 -199 -191 -76 -85 -160 -177 -187 -205
l-48 -50 6 100 c21 339 91 615 269 1063 35 89 63 162 62 162 -1 0 -56 -38
-121 -84 -111 -78 -121 -83 -137 -69 -10 9 -18 20 -18 25 0 6 48 76 107 156
59 81 172 237 251 347 80 110 158 216 173 236 26 33 28 40 18 68 l-11 31 -101
-1 c-66 0 -127 -7 -172 -19z"/>
<path d="M3831 6237 c-91 -61 -216 -179 -282 -266 -64 -85 -133 -224 -160
-326 -17 -63 -22 -108 -22 -210 0 -145 17 -228 74 -357 32 -75 108 -200 128
-213 6 -3 58 16 114 43 56 27 103 48 105 47 3 -2 -26 -136 -62 -290 -95 -403
-30 -771 196 -1104 155 -230 151 -210 152 -710 l1 -394 140 -74 c425 -226 947
-475 1420 -678 340 -146 903 -371 909 -363 2 1 -23 50 -56 108 -120 215 -199
444 -244 710 -22 129 -34 237 -62 570 l-7 95 -42 -85 c-62 -128 -93 -261 -108
-465 -3 -44 -11 -129 -17 -189 l-11 -109 -19 24 c-198 250 -375 591 -463 895
-84 290 -47 603 113 956 l30 67 -25 16 c-28 19 10 46 -408 -298 -110 -91 -202
-163 -204 -162 -6 6 40 136 76 215 19 41 64 120 100 175 87 131 321 365 575
575 103 84 186 156 184 158 -2 2 -39 -2 -83 -8 -74 -10 -103 -23 -535 -245
-252 -129 -464 -235 -473 -235 -8 0 -15 5 -15 10 0 6 55 88 123 183 234 326
319 448 315 452 -2 2 -132 -29 -288 -70 -157 -41 -291 -75 -298 -75 -11 0 -12
12 -7 53 14 98 45 174 126 308 45 74 96 159 113 190 29 55 30 57 13 83 l-18
27 -425 -217 c-234 -119 -427 -214 -430 -211 -8 8 28 150 57 225 61 154 135
278 321 539 60 84 111 159 114 166 4 12 -6 12 -67 0 -247 -46 -393 -128 -709
-397 l-125 -107 -3 38 c-10 119 43 369 134 628 72 204 115 338 112 346 -2 4
-36 -16 -77 -44z"/>
<path d="M14385 3633 c-302 -211 -585 -453 -870 -744 -551 -563 -980 -1167
-1154 -1629 l-21 -55 142 145 c308 315 687 753 1204 1396 220 273 478 585 622
749 133 153 168 195 161 195 -2 -1 -40 -26 -84 -57z"/>
<path d="M6544 2165 c-17 -40 -10 -453 9 -565 21 -125 46 -240 57 -259 8 -14
156 -74 403 -162 131 -46 301 -88 313 -77 2 3 -9 75 -25 159 -17 85 -51 264
-77 398 -36 186 -49 239 -57 225 -6 -10 -50 -106 -99 -214 -49 -107 -93 -199
-98 -204 -19 -19 -144 99 -205 194 -52 79 -81 146 -156 360 -44 127 -59 160
-65 145z"/>
</g>
</svg>
