{
  "accessors": [
    {
      "bufferView": 2,
      "componentType": 5126,
      "count": 429,
      "max": [
        1.7184346914291382,
        1.8950574398040771,
        0.46838879585266113
      ],
      "min": [
        -0.6394433975219727,
        -0.8040998578071594,
        -0.4753592014312744
      ],
      "type": "VEC3"
    },
    {
      "bufferView": 2,
      "byteOffset": 5148,
      "componentType": 5126,
      "count": 429,
      "max": [
        1.0,
        1.0,
        1.0
      ],
      "min": [
        -1.0,
        -1.0,
        -1.0
      ],
      "type": "VEC3"
    },
    {
      "bufferView": 1,
      "componentType": 5126,
      "count": 429,
      "max": [
        0.0889137014746666,
        0.8361281752586365
      ],
      "min": [
        0.0626920610666275,
        0.16031503677368164
      ],
      "type": "VEC2"
    },
    {
      "bufferView": 0,
      "componentType": 5125,
      "count": 744,
      "type": "SCALAR"
    },
    {
      "bufferView": 2,
      "byteOffset": 10296,
      "componentType": 5126,
      "count": 673,
      "max": [
        0.7822784185409546,
        1.2412848472595215,
        1.2682846784591675
      ],
      "min": [
        -0.9784488081932068,
        -1.094994306564331,
        -1.0679947137832642
      ],
      "type": "VEC3"
    },
    {
      "bufferView": 2,
      "byteOffset": 18372,
      "componentType": 5126,
      "count": 673,
      "max": [
        1.0,
        1.0,
        1.0
      ],
      "min": [
        -1.0,
        -1.0,
        -1.0
      ],
      "type": "VEC3"
    },
    {
      "bufferView": 1,
      "byteOffset": 3432,
      "componentType": 5126,
      "count": 673,
      "max": [
        0.8377970457077026,
        0.9927793741226196
      ],
      "min": [
        0.062222566455602646,
        0.20213583111763
      ],
      "type": "VEC2"
    },
    {
      "bufferView": 0,
      "byteOffset": 2976,
      "componentType": 5125,
      "count": 1056,
      "type": "SCALAR"
    },
    {
      "bufferView": 2,
      "byteOffset": 26448,
      "componentType": 5126,
      "count": 944,
      "max": [
        0.6037257313728333,
        1.1310895681381226,
        0.682253360748291
      ],
      "min": [
        -0.932743489742279,
        -0.9582111835479736,
        -0.5494682788848877
      ],
      "type": "VEC3"
    },
    {
      "bufferView": 2,
      "byteOffset": 37776,
      "componentType": 5126,
      "count": 944,
      "max": [
        1.0,
        1.0,
        0.9998197555541992
      ],
      "min": [
        -1.0,
        -1.0,
        -0.9999807476997375
      ],
      "type": "VEC3"
    },
    {
      "bufferView": 1,
      "byteOffset": 8816,
      "componentType": 5126,
      "count": 944,
      "max": [
        0.18736501038074493,
        0.4620380103588104
      ],
      "min": [
        0.18736501038074493,
        0.4620380103588104
      ],
      "type": "VEC2"
    },
    {
      "bufferView": 0,
      "byteOffset": 7200,
      "componentType": 5125,
      "count": 1416,
      "type": "SCALAR"
    },
    {
      "bufferView": 2,
      "byteOffset": 49104,
      "componentType": 5126,
      "count": 159,
      "max": [
        0.017164289951324463,
        0.19171474874019623,
        0.04792875051498413
      ],
      "min": [
        -0.009979510679841042,
        -0.19171477854251862,
        -0.04792863130569458
      ],
      "type": "VEC3"
    },
    {
      "bufferView": 2,
      "byteOffset": 51012,
      "componentType": 5126,
      "count": 159,
      "max": [
        -0.305645614862442,
        0.8796674013137817,
        0.8796676993370056
      ],
      "min": [
        -1.0,
        -0.8796674013137817,
        -0.8796676993370056
      ],
      "type": "VEC3"
    },
    {
      "bufferView": 1,
      "byteOffset": 16368,
      "componentType": 5126,
      "count": 159,
      "max": [
        0.3142544627189636,
        0.8457368016242981
      ],
      "min": [
        0.3108760714530945,
        0.5055351257324219
      ],
      "type": "VEC2"
    },
    {
      "bufferView": 0,
      "byteOffset": 12864,
      "componentType": 5125,
      "count": 216,
      "type": "SCALAR"
    },
    {
      "bufferView": 2,
      "byteOffset": 52920,
      "componentType": 5126,
      "count": 724,
      "max": [
        0.828826904296875,
        0.8407153487205505,
        0.28887391090393066
      ],
      "min": [
        -1.3061156272888184,
        -0.5163729190826416,
        -0.08524370193481445
      ],
      "type": "VEC3"
    },
    {
      "bufferView": 2,
      "byteOffset": 61608,
      "componentType": 5126,
      "count": 724,
      "max": [
        0.9996600151062012,
        0.9994661211967468,
        1.0
      ],
      "min": [
        -0.9996600151062012,
        -0.9994661211967468,
        -1.0
      ],
      "type": "VEC3"
    },
    {
      "bufferView": 1,
      "byteOffset": 17640,
      "componentType": 5126,
      "count": 724,
      "max": [
        0.19032308459281921,
        0.8333332538604736
      ],
      "min": [
        0.05859379470348358,
        0.16145828366279602
      ],
      "type": "VEC2"
    },
    {
      "bufferView": 0,
      "byteOffset": 13728,
      "componentType": 5125,
      "count": 1110,
      "type": "SCALAR"
    },
    {
      "bufferView": 2,
      "byteOffset": 70296,
      "componentType": 5126,
      "count": 76,
      "max": [
        0.17548751831054688,
        0.2653926610946655,
        0.003670796751976013
      ],
      "min": [
        -0.17548775672912598,
        -0.26539313793182373,
        -0.002241358160972595
      ],
      "type": "VEC3"
    },
    {
      "bufferView": 2,
      "byteOffset": 71208,
      "componentType": 5126,
      "count": 76,
      "max": [
        0.9438238143920898,
        0.8837592005729675,
        1.0
      ],
      "min": [
        -0.9438238143920898,
        -0.8837534785270691,
        -1.0
      ],
      "type": "VEC3"
    },
    {
      "bufferView": 1,
      "byteOffset": 23432,
      "componentType": 5126,
      "count": 76,
      "max": [
        0.1872793585062027,
        0.5221248269081116
      ],
      "min": [
        0.1872793585062027,
        0.5221248269081116
      ],
      "type": "VEC2"
    },
    {
      "bufferView": 0,
      "byteOffset": 18168,
      "componentType": 5125,
      "count": 132,
      "type": "SCALAR"
    }
  ],
  "asset": {
    "extras": {
      "author": "JasperTobias (https://sketchfab.com/JasperTobias)",
      "license": "CC-BY-4.0 (http://creativecommons.org/licenses/by/4.0/)",
      "source": "https://sketchfab.com/3d-models/retro-computer-monitor-8926293078874194b551e74c40a3debf",
      "title": "Retro Computer & Monitor"
    },
    "generator": "Sketchfab-12.68.0",
    "version": "2.0"
  },
  "bufferViews": [
    {
      "buffer": 0,
      "byteLength": 18696,
      "name": "floatBufferViews",
      "target": 34963
    },
    {
      "buffer": 0,
      "byteLength": 24040,
      "byteOffset": 18696,
      "byteStride": 8,
      "name": "floatBufferViews",
      "target": 34962
    },
    {
      "buffer": 0,
      "byteLength": 72120,
      "byteOffset": 42736,
      "byteStride": 12,
      "name": "floatBufferViews",
      "target": 34962
    }
  ],
  "buffers": [
    {
      "byteLength": 114856,
      "uri": "scene.bin"
    }
  ],
  "extensionsRequired": [
    "KHR_materials_pbrSpecularGlossiness"
  ],
  "extensionsUsed": [
    "KHR_materials_pbrSpecularGlossiness"
  ],
  "images": [
    {
      "uri": "textures/RetroPalette2_diffuse.png"
    }
  ],
  "materials": [
    {
      "doubleSided": true,
      "extensions": {
        "KHR_materials_pbrSpecularGlossiness": {
          "diffuseFactor": [
            1.0,
            1.0,
            1.0,
            1.0
          ],
          "diffuseTexture": {
            "index": 0
          },
          "glossinessFactor": 0.0,
          "specularFactor": [
            0.05,
            0.05,
            0.05
          ]
        }
      },
      "name": "RetroPalette2"
    }
  ],
  "meshes": [
    {
      "name": "Computer.002_RetroPalette2_0",
      "primitives": [
        {
          "attributes": {
            "NORMAL": 1,
            "POSITION": 0,
            "TEXCOORD_0": 2
          },
          "indices": 3,
          "material": 0,
          "mode": 4
        }
      ]
    },
    {
      "name": "Monitor.002_RetroPalette2_0",
      "primitives": [
        {
          "attributes": {
            "NORMAL": 5,
            "POSITION": 4,
            "TEXCOORD_0": 6
          },
          "indices": 7,
          "material": 0,
          "mode": 4
        }
      ]
    },
    {
      "name": "Cable.002_RetroPalette2_0",
      "primitives": [
        {
          "attributes": {
            "NORMAL": 9,
            "POSITION": 8,
            "TEXCOORD_0": 10
          },
          "indices": 11,
          "material": 0,
          "mode": 4
        }
      ]
    },
    {
      "name": "MonitorButtons.002_RetroPalette2_0",
      "primitives": [
        {
          "attributes": {
            "NORMAL": 13,
            "POSITION": 12,
            "TEXCOORD_0": 14
          },
          "indices": 15,
          "material": 0,
          "mode": 4
        }
      ]
    },
    {
      "name": "Mouse.002_RetroPalette2_0",
      "primitives": [
        {
          "attributes": {
            "NORMAL": 17,
            "POSITION": 16,
            "TEXCOORD_0": 18
          },
          "indices": 19,
          "material": 0,
          "mode": 4
        }
      ]
    },
    {
      "name": "MouseMat.002_RetroPalette2_0",
      "primitives": [
        {
          "attributes": {
            "NORMAL": 21,
            "POSITION": 20,
            "TEXCOORD_0": 22
          },
          "indices": 23,
          "material": 0,
          "mode": 4
        }
      ]
    }
  ],
  "nodes": [
    {
      "children": [
        1
      ],
      "matrix": [
        1.0,
        0.0,
        0.0,
        0.0,
        0.0,
        2.220446049250313e-16,
        -1.0,
        0.0,
        0.0,
        1.0,
        2.220446049250313e-16,
        0.0,
        0.0,
        0.0,
        0.0,
        1.0
      ],
      "name": "Sketchfab_model"
    },
    {
      "children": [
        2
      ],
      "matrix": [
        1.0,
        0.0,
        0.0,
        0.0,
        0.0,
        0.0,
        1.0,
        0.0,
        0.0,
        -1.0,
        0.0,
        0.0,
        0.0,
        0.0,
        0.0,
        1.0
      ],
      "name": "50cb8c0060624749b2eb78dbf0a6cbc8.fbx"
    },
    {
      "children": [
        3,
        11,
        13
      ],
      "name": "RootNode"
    },
    {
      "children": [
        4,
        5
      ],
      "matrix": [
        25.465055465698242,
        0.0,
        0.0,
        0.0,
        -0.0,
        -4.148784137222227e-06,
        -25.465055465697905,
        0.0,
        0.0,
        25.465055465697905,
        -4.148784137222227e-06,
        0.0,
        -49.074668884277344,
        96.83641052246094,
        17.13848114013672,
        1.0
      ],
      "name": "Computer.002"
    },
    {
      "mesh": 0,
      "name": "Computer.002_RetroPalette2_0"
    },
    {
      "children": [
        6,
        7,
        9
      ],
      "matrix": [
        0.9999997019767761,
        0.0,
        0.0,
        0.0,
        0.0,
        0.9999997019767761,
        0.0,
        0.0,
        0.0,
        0.0,
        0.9999997019767761,
        0.0,
        0.5500028133392334,
        0.4880567193031311,
        1.5377593040466309,
        1.0
      ],
      "name": "Monitor.002"
    },
    {
      "mesh": 1,
      "name": "Monitor.002_RetroPalette2_0"
    },
    {
      "children": [
        8
      ],
      "matrix": [
        0.9999998211860657,
        0.0,
        0.0,
        0.0,
        0.0,
        0.9999998211860657,
        0.0,
        0.0,
        0.0,
        0.0,
        0.9999998211860657,
        0.0,
        1.1026149988174438,
        -0.4362194538116455,
        -1.303520679473877,
        1.0
      ],
      "name": "Cable.002"
    },
    {
      "mesh": 2,
      "name": "Cable.002_RetroPalette2_0"
    },
    {
      "children": [
        10
      ],
      "matrix": [
        0.9999998211860657,
        0.0,
        0.0,
        0.0,
        0.0,
        0.9999998211860657,
        0.0,
        0.0,
        0.0,
        0.0,
        0.9999998211860657,
        0.0,
        -0.9536077976226807,
        -0.07392334938049316,
        -0.8921871185302734,
        1.0
      ],
      "name": "MonitorButtons.002"
    },
    {
      "mesh": 3,
      "name": "MonitorButtons.002_RetroPalette2_0"
    },
    {
      "children": [
        12
      ],
      "matrix": [
        17.844297409057617,
        0.0,
        0.0,
        0.0,
        -0.0,
        -2.907205057153564e-06,
        -17.844297409057383,
        0.0,
        0.0,
        17.844297409057383,
        -2.907205057153564e-06,
        0.0,
        -77.79515075683594,
        85.812255859375,
        30.025815963745117,
        1.0
      ],
      "name": "Mouse.002"
    },
    {
      "mesh": 4,
      "name": "Mouse.002_RetroPalette2_0"
    },
    {
      "children": [
        14
      ],
      "matrix": [
        100.0,
        0.0,
        0.0,
        0.0,
        -0.0,
        -1.629206793918314e-05,
        -99.99999999999868,
        0.0,
        0.0,
        99.99999999999868,
        -1.629206793918314e-05,
        0.0,
        -87.58540344238281,
        84.75833892822266,
        30.02580451965332,
        1.0
      ],
      "name": "MouseMat.002"
    },
    {
      "mesh": 5,
      "name": "MouseMat.002_RetroPalette2_0"
    }
  ],
  "samplers": [
    {
      "magFilter": 9729,
      "minFilter": 9987,
      "wrapS": 10497,
      "wrapT": 10497
    }
  ],
  "scene": 0,
  "scenes": [
    {
      "name": "Sketchfab_Scene",
      "nodes": [
        0
      ]
    }
  ],
  "textures": [
    {
      "sampler": 0,
      "source": 0
    }
  ]
}
